<?xml version="1.0" standalone="no"?>
<!DOCTYPE svg PUBLIC "-//W3C//DTD SVG 20010904//EN"
 "http://www.w3.org/TR/2001/REC-SVG-20010904/DTD/svg10.dtd">
<svg version="1.0" xmlns="http://www.w3.org/2000/svg"
 width="577.000000pt" height="567.000000pt" viewBox="0 0 577.000000 567.000000"
 preserveAspectRatio="xMidYMid meet">

<g transform="translate(0.000000,567.000000) scale(0.100000,-0.100000)"
fill="#000000" stroke="none">
<path d="M1650 4795 c-60 -19 -123 -74 -152 -133 l-23 -47 -3 -1675 c-2 -1163
1 -1691 8 -1727 21 -98 98 -173 201 -195 45 -9 64 -8 113 6 57 17 68 26 453
404 217 213 494 484 616 604 l222 216 -80 84 c-109 113 119 -109 753 -732 293
-288 548 -534 568 -547 93 -64 216 -50 303 35 88 84 81 -66 81 1822 0 1888 7
1738 -81 1822 -79 77 -181 96 -278 51 -21 -10 -252 -229 -546 -519 -570 -560
-921 -900 -800 -775 l80 83 -222 216 c-122 120 -399 391 -616 604 -370 363
-397 387 -447 402 -64 19 -90 19 -150 1z m990 -1668 c0 -2 -12 -14 -27 -28
l-28 -24 24 28 c23 25 31 32 31 24z m-20 -412 c13 -14 21 -25 18 -25 -2 0 -15
11 -28 25 -13 14 -21 25 -18 25 2 0 15 -11 28 -25z"/>
</g>
</svg>
